<svg width="120" height="120" viewBox="0 0 120 120" fill="none" xmlns="http://www.w3.org/2000/svg">
  <circle cx="60" cy="60" r="46" fill="#FCE4EC"/>
  <circle cx="70" cy="40" r="16" fill="#F4C49F"/>
  <path d="M56 40C57 29 66 24 76 26C82 27 86 32 86 39V43H56V40Z" fill="#203246"/>
  <circle cx="52" cy="58" r="12" fill="#F7D2B2"/>
  <path d="M42 58C43 49 51 45 58 47C63 48 66 52 66 58V61H42V58Z" fill="#6FA8DC"/>
  <path d="M52 71C59 71 65 75 69 82" stroke="#203246" stroke-width="5" stroke-linecap="round"/>
  <path d="M54 86C56 70 65 56 78 56C89 56 97 69 98 86" fill="#A8E6CF"/>
  <path d="M30 88C31 76 38 67 48 67C56 67 63 74 64 88" fill="#FFE066"/>
  <path d="M54 86C56 70 65 56 78 56C89 56 97 69 98 86" stroke="#203246" stroke-width="5" stroke-linecap="round"/>
  <path d="M30 88C31 76 38 67 48 67C56 67 63 74 64 88" stroke="#203246" stroke-width="5" stroke-linecap="round"/>
</svg>
